<?xml version="1.0" encoding="utf-8"?>
<!-- Generator: Adobe Illustrator 21.0.0, SVG Export Plug-In . SVG Version: 6.00 Build 0)  -->
<svg version="1.1" xmlns="http://www.w3.org/2000/svg" xmlns:xlink="http://www.w3.org/1999/xlink" x="0px" y="0px"
	 viewBox="0 0 200 200" style="enable-background:new 0 0 200 200;" xml:space="preserve">
<style type="text/css">
	.st0{display:none;}
	.st1{display:inline;fill:#727373;stroke:#6D1810;stroke-width:3;stroke-miterlimit:10;}
	.st2{display:inline;}
	.st3{fill:#B5D335;}
	.st4{display:inline;fill:#6D1810;}
	.st5{fill:#727374;}
	.st6{display:inline;fill:none;stroke:#727373;stroke-width:2;stroke-miterlimit:10;}
	.st7{fill:#B5D336;}
	.st8{display:inline;fill:#727374;}
	.st9{fill:#6D1810;}
	.st10{fill:#878787;}
</style>
<g id="Layer_1" class="st0">
</g>
<g id="boxes" class="st0">
</g>
<g id="_x31_" class="st0">
</g>
<g id="_x32_" class="st0">
</g>
<g id="_x33_">
	<rect x="136.3" y="0" class="st9" width="63.7" height="200"/>
	<rect x="0" class="st10" width="136.3" height="200"/>
	<g>
		<path class="st7" d="M180.8,165.3v-64.2L146,165.3h-9.3l-34.8-64.2v64.2H89V74.2h12.7l39.5,73.3L181,74.2h12.7v91.1H180.8z"/>
	</g>
	<g>
		<path class="st3" d="M70.4,151c-19.6,0-34.9-5.5-45.9-16.4c-11-10.9-16.6-26-16.6-45.2c0-19,5.5-33.7,16.7-44.2
			c11.1-10.4,26.4-15.7,45.9-15.7c19.5,0,34.8,5.2,46,15.7c11.2,10.4,16.8,25.2,16.8,44.2c0,19.4-5.6,34.5-16.9,45.3
			C105,145.6,89.7,151,70.4,151z M70.4,35.5c-17.6,0-31.3,4.7-41.2,14.2c-9.9,9.4-14.9,22.7-14.9,39.8c0,17.1,5,30.7,15,40.7
			c10,10,23.7,15,41.1,15c17.7,0,31.5-5,41.5-14.9c10-9.9,15-23.5,15-40.9c0-17.3-5.1-30.7-15.3-40.2C101.6,40,87.9,35.5,70.4,35.5z
			"/>
	</g>
</g>
<g id="_x34_" class="st0">
</g>
</svg>
