<?xml version="1.0" encoding="utf-8"?>
<!-- Generator: Adobe Illustrator 21.0.0, SVG Export Plug-In . SVG Version: 6.00 Build 0)  -->
<svg version="1.1" id="Layer_1" xmlns="http://www.w3.org/2000/svg" xmlns:xlink="http://www.w3.org/1999/xlink" x="0px" y="0px"
	 viewBox="0 0 461.7 78" style="enable-background:new 0 0 461.7 78;" xml:space="preserve">
<style type="text/css">
	.st0{fill:#878787;stroke:#6D1810;stroke-width:3;stroke-miterlimit:10;}
	.st1{fill:none;stroke:#6D1810;stroke-width:3;stroke-miterlimit:10;}
	.st2{fill:#6D1810;stroke:#B5D335;stroke-width:2;stroke-miterlimit:10;}
	.st3{fill:#E5E5E5;stroke:#B5D335;stroke-width:2;stroke-miterlimit:10;}
	.st4{fill:none;stroke:#000000;stroke-miterlimit:10;}
	.st5{fill:#6D1810;}
	.st6{fill:#EFEDED;}
	.st7{fill:#878787;}
	.st8{fill:#B5D334;}
	.st9{fill:#235F2F;}
	.st10{fill:#B5D336;}
	.st11{fill:#B5D335;}
	.st12{fill:#727373;stroke:#6D1810;stroke-width:3;stroke-miterlimit:10;}
	.st13{fill:#727374;}
</style>
<rect x="1.5" y="1.5" class="st0" width="231" height="75"/>
<g>
	<path class="st11" d="M31.3,58.5c-6.4,0-11.4-1.8-15-5.3c-3.6-3.6-5.4-8.5-5.4-14.7c0-6.2,1.8-11,5.4-14.4
		c3.6-3.4,8.6-5.1,14.9-5.1c6.3,0,11.3,1.7,15,5.1c3.7,3.4,5.5,8.2,5.5,14.4c0,6.3-1.8,11.2-5.5,14.8C42.6,56.7,37.7,58.5,31.3,58.5
		z M31.3,20.9c-5.7,0-10.2,1.5-13.4,4.6c-3.2,3.1-4.8,7.4-4.8,13c0,5.6,1.6,10,4.9,13.3s7.7,4.9,13.4,4.9c5.8,0,10.3-1.6,13.5-4.8
		c3.2-3.2,4.9-7.7,4.9-13.3c0-5.6-1.7-10-5-13.1C41.5,22.3,37.1,20.9,31.3,20.9z"/>
	<path class="st11" d="M61.1,35.9c0.6-1.4,1.6-2.6,2.9-3.8c2.5-2,5.6-3.1,9.5-3.1V31c-4.4,0-7.7,1.7-9.8,5
		c-1.7,2.8-2.6,6.4-2.6,10.7v11.3H59V29.8h2.1V35.9z"/>
	<path class="st11" d="M92.8,68.5c-3.4,0-6.1-0.7-8.3-2c-2.6-1.6-3.9-4.1-4.1-7.6h2.1c0.4,5.1,3.9,7.7,10.4,7.7
		c7.5,0,11.3-3.2,11.3-9.7v-5.2c-1.2,2-2.8,3.5-5,4.6c-2.1,1.1-4.4,1.6-6.9,1.6c-4.2,0-7.5-1.3-9.9-4c-2.4-2.6-3.6-6.1-3.6-10.3
		c0-4.3,1.2-7.8,3.7-10.5c2.5-2.7,5.9-4,10.3-4c2.5,0,4.7,0.6,6.7,1.7c2.1,1.2,3.7,2.8,4.8,4.8v-5.8h2.1v27.1
		C106.2,64.6,101.7,68.5,92.8,68.5z M92.5,31c-3.6,0-6.5,1.2-8.7,3.7c-2.1,2.4-3.1,5.3-3.1,8.9c0,3.6,0.9,6.5,2.8,8.8
		c2,2.4,4.9,3.7,8.5,3.7c3.7,0,6.6-1.2,8.8-3.5c2.1-2.2,3.2-5.1,3.2-8.8c0-3.6-1-6.6-3.1-9C98.9,32.2,96.1,31,92.5,31z"/>
	<path class="st11" d="M139.1,58.1v-6.4c-2.5,4.7-6.6,7-12.2,7c-4.4,0-7.8-1.4-10.3-4.3c-2.4-2.7-3.5-6.1-3.5-10.4
		c0-4.4,1.2-7.9,3.5-10.6c2.6-2.9,6.1-4.3,10.5-4.3c5.7,0,9.7,2.3,12,6.8v-6.8h2.1v29H139.1z M126.8,31c-3.7,0-6.6,1.3-8.7,3.9
		c-2,2.4-3,5.4-3,9.1c0,3.7,1,6.7,2.9,9c2.1,2.5,5.1,3.8,8.8,3.8c3.7,0,6.7-1.3,9-3.8c2.2-2.4,3.3-5.4,3.3-9c0-4-1.1-7.1-3.2-9.5
		C133.8,32.2,130.7,31,126.8,31z"/>
	<path class="st11" d="M172.5,58.1V39.5c0-2.7-0.9-4.8-2.6-6.3c-1.7-1.4-4-2.2-6.8-2.2c-3.4,0-6,1-8,3.1c-2,2.1-2.9,4.8-2.9,8.1
		v15.9h-2.1V29.8h2.1v5.1c1.9-3.9,5.5-5.8,10.8-5.8c3.4,0,6.1,0.8,8.1,2.4c2.3,1.7,3.4,4.2,3.4,7.4v19.2H172.5z"/>
	<path class="st11" d="M184.3,23.9c-0.4,0-0.7-0.3-0.9-0.8v-3.9c0.2-0.6,0.5-0.9,0.9-0.9c0.3,0,0.7,0.3,1.2,0.8v4.1
		C185.1,23.6,184.7,23.9,184.3,23.9z M183.4,58.1V29.6h2.1v28.5H183.4z"/>
	<path class="st11" d="M215.1,56.6c-2.2,1.4-4.9,2.1-8.1,2.1c-4.4,0-8-1.3-10.5-3.9c-2.6-2.6-3.9-6.1-3.9-10.4c0-4.7,1.3-8.5,4-11.2
		c2.7-2.8,6.3-4.1,11-4.1c2.9,0,5.3,0.7,7.4,2c2.3,1.5,3.8,3.6,4.6,6.4l-1.9,1c-1.3-5-4.7-7.5-10.2-7.5c-4.1,0-7.2,1.3-9.6,3.8
		c-2.2,2.4-3.2,5.6-3.2,9.6c0,3.8,1.1,6.7,3.2,9c2.2,2.2,5.2,3.4,9,3.4c2.7,0,5-0.6,7-1.9c2.1-1.4,3.5-3.5,4-6.3l2,0.9
		C219.2,52.6,217.6,55,215.1,56.6z"/>
</g>
<rect x="230.4" class="st5" width="231.3" height="78"/>
<g>
	<path class="st7" d="M279.6,58.1V26.4l-16.4,31.7h-3l-16.4-31.7v31.7H240V18.8h4l17.6,34l17.7-34h4v39.3H279.6z"/>
	<path class="st7" d="M311.9,58.2V54c-2.7,3.1-6.5,4.7-11.4,4.7c-4.6,0-8.3-1.4-11-4.3c-2.5-2.7-3.7-6.2-3.7-10.4
		c0-4.3,1.3-7.8,3.8-10.6c2.7-2.9,6.4-4.4,11.1-4.4c4.8,0,8.5,1.5,11.1,4.5v-4.5h3.8v29.1H311.9z M309,35.7c-1.9-2-4.8-3.1-8.5-3.1
		c-3.4,0-6.1,1.1-8.1,3.3c-1.8,2.1-2.7,4.8-2.7,8c0,3.3,0.9,6,2.7,8c1.9,2.2,4.6,3.2,8.1,3.2c3.4,0,6.2-1.1,8.3-3.2
		c2.1-2.1,3.1-4.8,3.1-8C311.9,40.5,311,37.7,309,35.7z"/>
	<path class="st7" d="M327.7,34.3v23.8h-3.8V34.3H318v-3.5h5.8v-8.3h3.8v8.3h5.9v3.5H327.7z"/>
	<path class="st7" d="M342.9,34.3v23.8h-3.8V34.3h-5.8v-3.5h5.8v-8.3h3.8v8.3h5.9v3.5H342.9z"/>
	<path class="st7" d="M352.7,45.3c0.5,6.6,4.2,9.9,11.2,9.9c5.4,0,9-2.2,10.7-6.6h3.9c-1.3,4-3.3,6.7-6.1,8.2c-2.5,1.3-5.4,2-8.7,2
		c-4.9,0-8.7-1.4-11.3-4.1c-2.4-2.6-3.6-6.1-3.6-10.6c0-4.3,1.4-7.8,4.1-10.7c2.7-2.8,6.4-4.2,11.1-4.2c4.6,0,8.2,1.2,11,3.7
		c2.8,2.5,4.1,5.9,4.1,10.1v2.4H352.7z M372.1,35.5c-2-1.9-4.7-2.9-8.1-2.9c-3.1,0-5.6,0.8-7.6,2.4c-2,1.6-3.2,3.9-3.7,6.9H375
		C374.8,39.3,373.8,37.2,372.1,35.5z"/>
	<path class="st7" d="M387.5,37c-1.6,2.5-2.4,5.7-2.4,9.7v11.5h-3.8V29.7h3.8v3.9c2.7-3,6.8-4.5,12.4-4.5v3.5
		C392.7,32.6,389.4,34.1,387.5,37z"/>
	<path class="st7" d="M408.1,67.8c-5.1-7.8-7.7-16.5-7.7-26.2c0-9.7,2.6-18.4,7.7-26.2h4.4c-5.5,8.1-8.2,16.8-8.2,26.2
		c0,9.4,2.7,18.1,8.2,26.2H408.1z"/>
	<path class="st7" d="M433.5,57.2c-2,1.1-4.7,1.6-7.9,1.6c-8.9,0-13.3-4-13.3-12.1h3.9c0,3.1,0.7,5.3,2.2,6.6c1.5,1.3,3.9,2,7.2,2
		c2.3,0,4.1-0.3,5.6-1c1.7-0.9,2.6-2.1,2.6-3.8c0-2.1-1.8-3.5-5.5-4.3c-0.3,0-2.2-0.3-5.8-0.9c-6-0.9-9-3.5-9-7.8
		c0-2.8,1.2-5,3.6-6.5c2.1-1.3,4.6-2,7.5-2c8.6,0,12.9,3.6,12.9,10.8h-4c0-2.6-0.7-4.5-2-5.6c-1.4-1.1-3.6-1.7-6.6-1.7
		c-2,0-3.8,0.4-5.2,1.2c-1.5,0.9-2.3,2.2-2.3,3.7c0,2,1.8,3.3,5.3,4c1,0.2,3.1,0.5,6.1,1c5.9,1,8.9,3.7,8.9,7.9
		C437.7,53.5,436.3,55.7,433.5,57.2z"/>
	<path class="st7" d="M442,67.8h-4.3c5.7-8.1,8.5-16.8,8.5-26.2c0-9.4-2.8-18.1-8.5-26.2h4.3c5.3,7.6,8,16.3,8,26.2
		C450,51.5,447.3,60.2,442,67.8z"/>
</g>
</svg>
